PathFileType	4	(X/Y/Z)	/Users/itak/Documents/Research/Walk-IL/dataset/trc/00105_00007.trc
DataRate	CameraRate	NumFrames	NumMarkers	Units	OrigDataRate	OrigDataStartFrame	OrigNumFrames
100.000000	100.000000	4	53	mm	100.000000	0	539
Frame#	Time	RPSI			LPSI			L3			STRN			T10			C7			CLAV			RBAK			LBAK			LSHO			LUPA			LAEL			LAOL			LWTS			LWPS			LFRA			LIFD			LHPS			LHTS			RSHO			RUPA			RAEL			RAOL			RWTS			RWPS			RFRA			RIFD			RHTS			RHPS			RBHD			LFHD			RFHD			LBHD			LHIP			RHIP			RASI			LASI			LKNE			LTHI			LANK			LTIP			LTOE			LMT1			LMT5			LHEE			RKNE			RTHI			RANK			RTIP			RTOE			RMT1			RMT5			RHEE			
		X1	Y1	Z1	X2	Y2	Z2	X3	Y3	Z3	X4	Y4	Z4	X5	Y5	Z5	X6	Y6	Z6	X7	Y7	Z7	X8	Y8	Z8	X9	Y9	Z9	X10	Y10	Z10	X11	Y11	Z11	X12	Y12	Z12	X13	Y13	Z13	X14	Y14	Z14	X15	Y15	Z15	X16	Y16	Z16	X17	Y17	Z17	X18	Y18	Z18	X19	Y19	Z19	X20	Y20	Z20	X21	Y21	Z21	X22	Y22	Z22	X23	Y23	Z23	X24	Y24	Z24	X25	Y25	Z25	X26	Y26	Z26	X27	Y27	Z27	X28	Y28	Z28	X29	Y29	Z29	X30	Y30	Z30	X31	Y31	Z31	X32	Y32	Z32	X33	Y33	Z33	X34	Y34	Z34	X35	Y35	Z35	X36	Y36	Z36	X37	Y37	Z37	X38	Y38	Z38	X39	Y39	Z39	X40	Y40	Z40	X41	Y41	Z41	X42	Y42	Z42	X43	Y43	Z43	X44	Y44	Z44	X45	Y45	Z45	X46	Y46	Z46	X47	Y47	Z47	X48	Y48	Z48	X49	Y49	Z49	X50	Y50	Z50	X51	Y51	Z51	X52	Y52	Z52	X53	Y53	Z53	

1	0	-1915.858520507812	1126.412841796875	-152.6579284667969	-1912.746948242188	1126.985961914062	-288.2386779785156	-1921.15576171875	1159.557250976562	-223.9016418457031	-1698.13232421875	1361.6591796875	-221.5140686035156	-1957.550537109375	1311.723876953125	-226.0607299804688	-1917.39501953125	1603.416748046875	-243.3632507324219	-1732.578857421875	1497.576293945312	-227.4828948974609	-1977.087280273438	1422.220092773438	-154.5364227294922	-1920.97412109375	1582.461303710938	-345.513671875	-1831.359130859375	1567.837524414062	-409.9583129882812	-1845.129272460938	1435.125	-479.3110656738281	-1819.481689453125	1213.939697265625	-493.9498291015625	-1893.534790039062	1201.389770507812	-447.8771057128906	-1720.503295898438	961.2340087890625	-424.6385803222656	-1794.796997070312	932.2178955078125	-464.5521545410156	-1799.021118164062	1098.207641601562	-490.7950744628906	-1709.820068359375	769.26904296875	-392.5833129882812	-1763.8369140625	858.25537109375	-457.2006225585938	-1700.888916015625	871.7604370117188	-429.1282043457031	-1867.436279296875	1588.737182617188	-59.87035751342773	-1886.269653320312	1516.458740234375	4.766534328460693	-1894.29638671875	1220.734130859375	28.57555389404297	-1900.71240234375	1219.548461914062	-69.53248596191406	-1742.656494140625	981.1939697265625	14.30046463012695	-1817.315673828125	962.951416015625	47.0599479675293	-1869.174194335938	1147.786499023438	43.90785598754883	-1714.360595703125	787.1709594726562	-4.788081645965576	-1710.615356445312	872.7578735351562	18.33553695678711	-1777.5888671875	863.3783569335938	49.36214065551758	-1881.493896484375	1772.5390625	-160.4060668945312	-1728.595703125	1843.926513671875	-304.1256713867188	-1721.443237304688	1851.170043945312	-174.5514068603516	-1894.96826171875	1768.249877929688	-294.6069030761719	-1818.520629882812	1037.801513671875	-393.2856750488281	-1790.245239257812	1032.038818359375	-34.90185928344727	-1706.654907226562	1105.275268554688	-86.73574829101562	-1711.59814453125	1102.90185546875	-351.4140930175781	-1799.753662109375	537.0398559570312	-367.7241516113281	-1817.570434570312	683.7059936523438	-393.9906005859375	-1917.952880859375	37.89572143554688	-366.8816528320312	-1904.198852539062	292.4291381835938	-397.5858459472656	-1687.775146484375	35.79402923583984	-300.2955627441406	-1771.75927734375	40.41015243530273	-270.7014770507812	-1790.50048828125	32.8620719909668	-389.3172607421875	-1988.532104492188	38.60819244384766	-305.1654968261719	-1797.548828125	539.2778930664062	-57.76609039306641	-1770.64453125	819.5831298828125	-36.32405853271484	-1910.811889648438	29.6246452331543	-61.01816558837891	-1827.711181640625	406.6787109375	-44.13235473632812	-1679.97607421875	38.05951309204102	-113.4098205566406	-1740.004150390625	29.77286529541016	-156.6943817138672	-1777.131469726562	36.23074722290039	-39.24951553344727	-1968.869262695312	33.35613632202148	-109.0666275024414	
2	0.01	-1915.962158203125	1126.409912109375	-152.6551818847656	-1912.794799804688	1126.978149414062	-288.2127075195312	-1921.236572265625	1159.547973632812	-223.9076995849609	-1698.176879882812	1361.67578125	-221.4821624755859	-1957.668090820312	1311.72998046875	-226.0795593261719	-1917.521118164062	1603.417114257812	-243.4084014892578	-1732.669555664062	1497.569702148438	-227.4856719970703	-1977.182495117188	1422.217895507812	-154.5547790527344	-1921.05078125	1582.463012695312	-345.5599365234375	-1831.407470703125	1567.827758789062	-409.9601135253906	-1845.114990234375	1435.095703125	-479.3050842285156	-1819.43994140625	1213.892822265625	-493.8326110839844	-1893.512939453125	1201.35009765625	-447.8109130859375	-1720.462036132812	961.2603759765625	-424.3947143554688	-1794.841064453125	932.2055053710938	-464.3346862792969	-1798.948486328125	1098.168823242188	-490.6148681640625	-1709.795776367188	769.2093505859375	-392.2015991210938	-1763.74169921875	858.2260131835938	-456.8861389160156	-1700.773315429688	871.8113403320312	-428.8070983886719	-1867.595825195312	1588.747924804688	-59.90975952148438	-1886.367553710938	1516.461181640625	4.741682529449463	-1894.587524414062	1220.811279296875	28.55620384216309	-1901.054565429688	1219.6328125	-69.53574371337891	-1743.121948242188	981.1395263671875	14.3249979019165	-1817.818725585938	962.93115234375	47.10360336303711	-1869.489868164062	1147.823364257812	43.94367218017578	-1715.099243164062	787.0272827148438	-4.767386913299561	-1711.193237304688	872.6619262695312	18.2952995300293	-1778.201904296875	863.3480224609375	49.36649703979492	-1881.665405273438	1772.549926757812	-160.4489440917969	-1728.831787109375	1843.96484375	-304.214599609375	-1721.578369140625	1851.228149414062	-174.5997161865234	-1895.1474609375	1768.194213867188	-294.6899719238281	-1818.577270507812	1037.799926757812	-393.2684631347656	-1790.343627929688	1032.03125	-34.87781143188477	-1706.742553710938	1105.300170898438	-86.70709228515625	-1711.661987304688	1102.905029296875	-351.4032287597656	-1799.7509765625	537.042236328125	-367.7027587890625	-1817.578125	683.706787109375	-393.9693298339844	-1917.94970703125	37.89007568359375	-366.8883361816406	-1904.186889648438	292.4215087890625	-397.586181640625	-1687.785278320312	35.80253601074219	-300.2909240722656	-1771.75732421875	40.40233993530273	-270.6996765136719	-1790.509033203125	32.86480331420898	-389.312255859375	-1988.532958984375	38.60720443725586	-305.1665649414062	-1797.447387695312	539.2801513671875	-57.76858901977539	-1770.887084960938	819.5017700195312	-36.31950378417969	-1910.893188476562	29.59613418579102	-61.00891876220703	-1827.6357421875	406.6501159667969	-44.13103866577148	-1679.998779296875	38.15478897094727	-113.4110412597656	-1740.033203125	29.78382873535156	-156.6799468994141	-1777.141967773438	36.22478485107422	-39.24883270263672	-1968.880981445312	33.3386344909668	-109.0557327270508	
3	0.02	-1916.083129882812	1126.402587890625	-152.6485595703125	-1912.856079101562	1126.966552734375	-288.1825866699219	-1921.335083007812	1159.534790039062	-223.9106903076172	-1698.233032226562	1361.695678710938	-221.4423370361328	-1957.812744140625	1311.734375	-226.0994873046875	-1917.676147460938	1603.408447265625	-243.4583435058594	-1732.783081054688	1497.560546875	-227.4921569824219	-1977.303833007812	1422.213500976562	-154.5757293701172	-1921.156616210938	1582.464477539062	-345.612060546875	-1831.47900390625	1567.81640625	-409.9588012695312	-1845.105834960938	1435.05908203125	-479.2952880859375	-1819.393798828125	1213.835693359375	-493.6840515136719	-1893.485717773438	1201.303100585938	-447.7196655273438	-1720.421508789062	961.28515625	-424.0817260742188	-1794.894287109375	932.1891479492188	-464.0620422363281	-1798.868896484375	1098.122192382812	-490.3863830566406	-1709.741943359375	769.1592407226562	-391.72802734375	-1763.63623046875	858.1895751953125	-456.4969787597656	-1700.655639648438	871.8534545898438	-428.4083251953125	-1867.79541015625	1588.758544921875	-59.95605850219727	-1886.50439453125	1516.462646484375	4.712117195129395	-1894.951416015625	1220.898803710938	28.53997993469238	-1901.459350585938	1219.727294921875	-69.53276062011719	-1743.706665039062	981.0773315429688	14.36226844787598	-1818.44140625	962.906494140625	47.1484489440918	-1869.895751953125	1147.864501953125	43.98567962646484	-1715.997802734375	786.85205078125	-4.735417366027832	-1711.935302734375	872.5377197265625	18.25603675842285	-1778.955444335938	863.2994384765625	49.36698532104492	-1881.875732421875	1772.55224609375	-160.5011749267578	-1729.123168945312	1844.012451171875	-304.3149719238281	-1721.750366210938	1851.30078125	-174.6606292724609	-1895.387939453125	1768.140747070312	-294.7922668457031	-1818.652954101562	1037.799438476562	-393.2511596679688	-1790.457641601562	1032.021240234375	-34.84917831420898	-1706.8505859375	1105.329345703125	-86.67088317871094	-1711.740356445312	1102.91064453125	-351.3910827636719	-1799.74853515625	537.0450439453125	-367.6775817871094	-1817.586791992188	683.7077026367188	-393.9431457519531	-1917.948120117188	37.88234329223633	-366.8959045410156	-1904.17529296875	292.4126586914062	-397.58642578125	-1687.798828125	35.81246566772461	-300.2857360839844	-1771.755249023438	40.3931999206543	-270.6976318359375	-1790.51953125	32.868408203125	-389.306396484375	-1988.534423828125	38.60508346557617	-305.16845703125	-1797.313720703125	539.28076171875	-57.77664184570312	-1771.148193359375	819.4037475585938	-36.31114959716797	-1910.973266601562	29.56515502929688	-60.99768447875977	-1827.535400390625	406.6119689941406	-44.13504028320312	-1680.032836914062	38.27861404418945	-113.4103851318359	-1740.076293945312	29.79933738708496	-156.6593627929688	-1777.154174804688	36.218994140625	-39.24858474731445	-1968.894287109375	33.31733703613281	-109.0427551269531	
4	0.03	-1916.212036132812	1126.3896484375	-152.6369781494141	-1912.927978515625	1126.950805664062	-288.1504516601562	-1921.445556640625	1159.516845703125	-223.9084167480469	-1698.298828125	1361.717407226562	-221.3961486816406	-1957.97607421875	1311.734985351562	-226.1175384521484	-1917.851928710938	1603.386596679688	-243.5075988769531	-1732.915405273438	1497.548706054688	-227.5027770996094	-1977.447387695312	1422.205688476562	-154.5966796875	-1921.291870117188	1582.464599609375	-345.6644592285156	-1831.577514648438	1567.804077148438	-409.9530029296875	-1845.107666015625	1435.01611328125	-479.2806396484375	-1819.349487304688	1213.771606445312	-493.509521484375	-1893.454711914062	1201.25146484375	-447.6032409667969	-1720.3876953125	961.3036499023438	-423.7076110839844	-1794.952880859375	932.1687622070312	-463.7452392578125	-1798.79150390625	1098.070068359375	-490.1190185546875	-1709.677368164062	769.1127319335938	-391.2020874023438	-1763.532348632812	858.1475830078125	-456.0524597167969	-1700.549072265625	871.8792114257812	-427.9493408203125	-1868.026611328125	1588.766967773438	-60.00537872314453	-1886.682006835938	1516.461669921875	4.679928302764893	-1895.371459960938	1220.988037109375	28.53194236755371	-1901.901733398438	1219.822265625	-69.51837921142578	-1744.383911132812	981.010009765625	14.41176605224609	-1819.154907226562	962.8781127929688	47.18957901000977	-1870.378540039062	1147.905517578125	44.02969360351562	-1717.009033203125	786.655029296875	-4.695735931396484	-1712.808959960938	872.387939453125	18.22300148010254	-1779.811401367188	863.232666015625	49.36617279052734	-1882.114501953125	1772.540649414062	-160.5596313476562	-1729.456665039062	1844.067016601562	-304.4180297851562	-1721.954467773438	1851.384521484375	-174.731201171875	-1895.684204101562	1768.096801757812	-294.9057922363281	-1818.746704101562	1037.800537109375	-393.2366943359375	-1790.571899414062	1032.009521484375	-34.8195915222168	-1706.971069335938	1105.361206054688	-86.62953948974609	-1711.829711914062	1102.91796875	-351.3788146972656	-1799.746459960938	537.0475463867188	-367.6509094238281	-1817.595703125	683.70849609375	-393.9140930175781	-1917.948974609375	37.87284469604492	-366.9037475585938	-1904.165283203125	292.403076171875	-397.5862731933594	-1687.815673828125	35.82357788085938	-300.28076171875	-1771.753540039062	40.38401031494141	-270.6955871582031	-1790.531860351562	32.87302017211914	-389.3001403808594	-1988.536743164062	38.60142517089844	-305.17138671875	-1797.150146484375	539.27880859375	-57.79179000854492	-1771.388549804688	819.2963256835938	-36.29911422729492	-1911.043334960938	29.53445053100586	-60.98504638671875	-1827.410888671875	406.565185546875	-44.14591217041016	-1680.080200195312	38.4294319152832	-113.4061584472656	-1740.134033203125	29.81996726989746	-156.6322784423828	-1777.167114257812	36.21414184570312	-39.24881362915039	-1968.907958984375	33.29311752319336	-109.0283508300781	
